<svg class="animated" id="freepik_stories-telescope" xmlns="http://www.w3.org/2000/svg" viewBox="0 0 500 500" version="1.1" xmlns:xlink="http://www.w3.org/1999/xlink" xmlns:svgjs="http://svgjs.com/svgjs"><style>svg#freepik_stories-telescope:not(.animated) .animable {opacity: 0;}svg#freepik_stories-telescope.animated #freepik--Character--inject-31 {animation: 1.5s Infinite  linear floating;animation-delay: 0s;}            @keyframes floating {                0% {                    opacity: 1;                    transform: translateY(0px);                }                50% {                    transform: translateY(-10px);                }                100% {                    opacity: 1;                    transform: translateY(0px);                }            }        </style><g id="freepik--background-simple--inject-31" class="animable" style="transform-origin: 248.138px 282.711px;"><path d="M477.16,451.35H68.75s-9.66.56-27.07-19c-2.57-2.89-5.31-6.22-8.22-10.05-22.56-29.76-27.19-75.9-1.15-122.79a89.07,89.07,0,0,1,7.42-11.26c23.36-30.36,56.93-40.77,82.89-66.54,16.21-16.08,26.45-38.06,39.67-57.72,15.89-23.62,35.9-39.41,59.9-44.85,49-11.12,111.07-4.93,154.37,28.43,13.25,10.2,25.09,23.67,34.77,41.45,19.4,35.63,14.48,85.19,36.73,118.06,3.39,5,6.77,9.19,10,13.27,6.63,8.35,12.64,16.23,16.78,29.77C488.73,395.53,477.16,451.35,477.16,451.35Z" style="fill: rgb(38, 50, 56); transform-origin: 248.137px 282.711px;" id="elaax817adcw8" class="animable"></path><g id="elgh5ay8jaz7a"><path d="M376.56,147.59c-43.3-33.36-105.37-39.55-154.37-28.43-24,5.44-44,21.23-59.9,44.85-13.22,19.66-23.46,41.64-39.67,57.72-26,25.77-59.53,36.18-82.89,66.54a89.07,89.07,0,0,0-7.42,11.26c-26,46.89-21.41,93,1.15,122.79s35.29,29,35.29,29H477.16s11.57-55.82-2.31-101.21c-6.16-20.15-16.47-27.78-26.79-43-22.25-32.87-17.33-82.43-36.73-118.06C401.65,171.26,389.81,157.79,376.56,147.59Z" style="fill: rgb(255, 255, 255); opacity: 0.7; transform-origin: 248.146px 282.707px;" class="animable"></path></g></g><g id="freepik--Stars--inject-31" class="animable" style="transform-origin: 243.585px 191.455px;"><g id="elba1y0wvcew"><circle cx="117.34" cy="134.05" r="8.49" style="fill: rgb(229, 229, 229); transform-origin: 117.34px 134.05px; transform: rotate(-76.67deg);" class="animable"></circle></g><circle cx="42.62" cy="72.52" r="6.09" style="fill: rgb(229, 229, 229); transform-origin: 42.62px 72.52px;" id="elp7lp6pb4d5" class="animable"></circle><circle cx="207.71" cy="93.53" r="6.09" style="fill: rgb(229, 229, 229); transform-origin: 207.71px 93.53px;" id="el0xvwwufkk1y" class="animable"></circle><circle cx="314.15" cy="49.6" r="6.09" style="fill: rgb(229, 229, 229); transform-origin: 314.15px 49.6px;" id="eltx62sy8id3" class="animable"></circle><circle cx="90.57" cy="267.9" r="6.09" style="fill: rgb(229, 229, 229); transform-origin: 90.57px 267.9px;" id="el4mie6ljhybf" class="animable"></circle><path d="M41.55,319c-4.75.74-5.35,1.34-6.09,6.09-.74-4.75-1.34-5.35-6.09-6.09,4.75-.74,5.35-1.34,6.09-6.09C36.2,317.64,36.8,318.24,41.55,319Z" style="fill: rgb(229, 229, 229); transform-origin: 35.46px 319px;" id="eli3y0uvys9v" class="animable"></path><circle cx="459.59" cy="283.87" r="6.09" style="fill: rgb(229, 229, 229); transform-origin: 459.59px 283.87px;" id="eldsftt7wud3m" class="animable"></circle><path d="M137.28,68.06c-4.76.73-5.36,1.33-6.09,6.09-.74-4.76-1.34-5.36-6.09-6.09,4.75-.74,5.35-1.34,6.09-6.09C131.92,66.72,132.52,67.32,137.28,68.06Z" style="fill: rgb(229, 229, 229); transform-origin: 131.19px 68.06px;" id="elws6tq4rulm" class="animable"></path><circle cx="310.93" cy="165.66" r="6.09" style="fill: rgb(229, 229, 229); transform-origin: 310.93px 165.66px;" id="elknlbr0ifian" class="animable"></circle><circle cx="370.04" cy="333.31" r="6.09" style="fill: rgb(229, 229, 229); transform-origin: 370.04px 333.31px;" id="elyl4scuyuzns" class="animable"></circle><circle cx="27.58" cy="196.47" r="6.09" style="fill: rgb(229, 229, 229); transform-origin: 27.58px 196.47px;" id="el2nbntvbnnzt" class="animable"></circle></g><g id="freepik--Mountains--inject-31" class="animable" style="transform-origin: 261.68px 375.442px;"><path d="M477.16,451.35H68.75s-9.66.56-27.07-19c51.35-40.91,173-136.11,189.37-132.73,20.77,4.29,125.37,87.4,132.54,86.68,5.83-.58,68.61-47.67,94.48-65.95,6.63,8.35,12.64,16.23,16.78,29.77C488.73,395.53,477.16,451.35,477.16,451.35Z" style="fill: rgb(38, 50, 56); transform-origin: 261.68px 375.442px;" id="elseqb6u8fta" class="animable"></path><g id="elbo24iq4zeig"><path d="M477.16,451.35H68.75s-9.66.56-27.07-19c51.35-40.91,173-136.11,189.37-132.73,20.77,4.29,125.37,87.4,132.54,86.68,5.83-.58,68.61-47.67,94.48-65.95,6.63,8.35,12.64,16.23,16.78,29.77C488.73,395.53,477.16,451.35,477.16,451.35Z" style="fill: rgb(255, 255, 255); opacity: 0.26; transform-origin: 261.68px 375.442px;" class="animable"></path></g></g><g id="freepik--Tree--inject-31" class="animable" style="transform-origin: 393.157px 234.189px;"><path d="M387.72,275.47s30,11.61,75.76-29.15-32.91-193.64-64.16-225S290.15,190.67,313,228.35,362.38,273.88,387.72,275.47Z" style="fill: rgb(38, 50, 56); transform-origin: 393.157px 147.504px;" id="ele9tmo1gg17j" class="animable"></path><g id="elpgjs8y3ezph"><path d="M387.72,275.47s30,11.61,75.76-29.15-32.91-193.64-64.16-225S290.15,190.67,313,228.35,362.38,273.88,387.72,275.47Z" style="fill: rgb(255, 255, 255); opacity: 0.5; transform-origin: 393.157px 147.504px;" class="animable"></path></g><polygon points="385.95 450.37 403.29 450.37 398.59 232.62 419.13 210.5 397.01 223.14 397.01 185.22 425.44 152.04 398.59 172.58 401.75 145.73 393.85 158.37 389.11 82.53 385.95 204.63 333.81 169.42 385.95 213.66 385.95 450.37" style="fill: rgb(38, 50, 56); transform-origin: 379.625px 266.45px;" id="el8uwwyaemh7l" class="animable"></polygon><path d="M391.75,352.74c-1.33-3.34,7.18-3.78,9.44-3.83l.23,10.1C398.45,357.92,392.87,355.53,391.75,352.74Z" style="fill: gray; transform-origin: 396.515px 353.96px;" id="el0a7f85h9y4q5" class="animable"></path><path d="M386,267.27c4.32,1.08,13.16,3.65,10.58,6.23-2,2-6.95,2.83-10.58,3.15Z" style="fill: gray; transform-origin: 391.522px 271.96px;" id="el74wtjny7iyu" class="animable"></path><path d="M391.13,295.78c-1.36-3.37,8.77-3.37,8.77-3.37l0,.18.2,8.89C397.72,300.63,392.18,298.41,391.13,295.78Z" style="fill: gray; transform-origin: 395.552px 296.945px;" id="elumnccry6dfk" class="animable"></path><path d="M391.8,251.89c-1-2.51,4.34-3.15,7.14-3.32l.19,8.39C396.44,255.87,392.65,254,391.8,251.89Z" style="fill: gray; transform-origin: 395.403px 252.765px;" id="el40n10msanlm" class="animable"></path><path d="M401.74,398.87l.67,4.7.13,5.81c-2.31-.79-9.5-3.46-10.79-6.67C390.22,398.87,401.74,398.87,401.74,398.87Z" style="fill: gray; transform-origin: 397.075px 404.125px;" id="elfnpf4901cpn" class="animable"></path><path d="M397.9,327.38c-2.29,2.29-7.83,3.21-11.95,3.58V320.31C390.9,321.55,400.82,324.46,397.9,327.38Z" style="fill: gray; transform-origin: 392.189px 325.635px;" id="eln3fupihjo1k" class="animable"></path><path d="M397.2,229.61c-2.15,2.15-7.59,2.93-11.25,3.21v-9.61C389.93,224.17,399.92,226.89,397.2,229.61Z" style="fill: gray; transform-origin: 391.806px 228.015px;" id="elz7fovvki0m" class="animable"></path><path d="M386.73,169.44c4.43,1.28,9.87,3.38,7.77,5.47-1.57,1.57-4.89,2.41-8,2.86Z" style="fill: gray; transform-origin: 390.733px 173.605px;" id="elydb4jj9rfkn" class="animable"></path><path d="M386,370.28c4.95,1.24,14.87,4.15,11.95,7.07-2.29,2.29-7.83,3.21-11.95,3.58Z" style="fill: gray; transform-origin: 392.239px 375.605px;" id="elxlh6aw99yhb" class="animable"></path><path d="M397,193.84v8.65c-2.7-1-7-3-7.91-5.3C388,194.43,394.59,193.93,397,193.84Z" style="fill: gray; transform-origin: 392.985px 198.165px;" id="elh7j4nubqq" class="animable"></path></g><g id="freepik--Plants--inject-31" class="animable" style="transform-origin: 236.794px 402.671px;"><path d="M18.92,450.64C17.8,440.47,26.07,429.52,36.55,429c9.39-.45,19.73,5.87,27.56.66,6.4-4.27,6.54-13.37,7.26-21s2.82-15.38,7.83-21.15,13.4-9.05,20.57-6.41c14.44,5.32,15.34,29,30.09,33.37,10.21,3,20.87-5.47,31.35-3.59,12.84,2.3,18.63,16.5,28.48,23.45,1,.72,5.31,3.81,10.21,7.4,4.12,3,8.67,6.35,12.09,8.92Z" style="fill: rgb(38, 50, 56); transform-origin: 115.404px 415.412px;" id="elhyx0suaus98" class="animable"></path><g id="el9ns77rhqhob"><path d="M18.92,450.64C17.8,440.47,26.07,429.52,36.55,429c9.39-.45,19.73,5.87,27.56.66,6.4-4.27,6.54-13.37,7.26-21s2.82-15.38,7.83-21.15,13.4-9.05,20.57-6.41c14.44,5.32,15.34,29,30.09,33.37,10.21,3,20.87-5.47,31.35-3.59,12.84,2.3,18.63,16.5,28.48,23.45,1,.72,5.31,3.81,10.21,7.4,4.12,3,8.67,6.35,12.09,8.92Z" style="fill: rgb(255, 255, 255); opacity: 0.41; transform-origin: 115.404px 415.412px;" class="animable"></path></g><line x1="138.74" y1="449.8" x2="146.84" y2="426.13" style="fill: none; stroke: rgb(38, 50, 56); stroke-linecap: round; stroke-linejoin: round; transform-origin: 142.79px 437.965px;" id="elfewtebo7ct9" class="animable"></line><line x1="110.08" y1="450.43" x2="93.25" y2="404.94" style="fill: none; stroke: rgb(38, 50, 56); stroke-linecap: round; stroke-linejoin: round; transform-origin: 101.665px 427.685px;" id="elw6oaffhu8u" class="animable"></line><line x1="49.02" y1="450.43" x2="39.05" y2="441.08" style="fill: none; stroke: rgb(38, 50, 56); stroke-linecap: round; stroke-linejoin: round; transform-origin: 44.035px 445.755px;" id="elrykbdw1omrj" class="animable"></line><line x1="140.97" y1="444.2" x2="135.62" y2="429.87" style="fill: none; stroke: rgb(38, 50, 56); stroke-linecap: round; stroke-linejoin: round; transform-origin: 138.295px 437.035px;" id="elvdka41v7ujh" class="animable"></line><line x1="142.01" y1="440.69" x2="160.55" y2="436.1" style="fill: none; stroke: rgb(38, 50, 56); stroke-linecap: round; stroke-linejoin: round; transform-origin: 151.28px 438.395px;" id="elhwt5m7plect" class="animable"></line><line x1="98.24" y1="418.65" x2="103.22" y2="410.55" style="fill: none; stroke: rgb(38, 50, 56); stroke-linecap: round; stroke-linejoin: round; transform-origin: 100.73px 414.6px;" id="elmhqkgszqd18" class="animable"></line><line x1="103.22" y1="431.11" x2="85.15" y2="421.14" style="fill: none; stroke: rgb(38, 50, 56); stroke-linecap: round; stroke-linejoin: round; transform-origin: 94.185px 426.125px;" id="elfais1p7i3zl" class="animable"></line><line x1="108.61" y1="446.93" x2="92.01" y2="441.08" style="fill: none; stroke: rgb(38, 50, 56); stroke-linecap: round; stroke-linejoin: round; transform-origin: 100.31px 444.005px;" id="ellcp3m3brkep" class="animable"></line><line x1="106.34" y1="440.46" x2="116.93" y2="421.77" style="fill: none; stroke: rgb(38, 50, 56); stroke-linecap: round; stroke-linejoin: round; transform-origin: 111.635px 431.115px;" id="elhhs0o4qzkc9" class="animable"></line><path d="M91.65,404.94a1.61,1.61,0,1,0,1.6-1.6A1.61,1.61,0,0,0,91.65,404.94Z" style="fill: rgb(99, 99, 99); transform-origin: 93.26px 404.95px;" id="elkse08hcwz88" class="animable"></path><path d="M101.73,410.41a1.61,1.61,0,1,0,1.61-1.61A1.61,1.61,0,0,0,101.73,410.41Z" style="fill: rgb(99, 99, 99); transform-origin: 103.34px 410.41px;" id="el2wlqp5jcg0f" class="animable"></path><path d="M83.55,421.14a1.61,1.61,0,1,0,1.6-1.6A1.61,1.61,0,0,0,83.55,421.14Z" style="fill: rgb(99, 99, 99); transform-origin: 85.16px 421.15px;" id="elxqpj98re3x" class="animable"></path><path d="M115.32,421.77a1.61,1.61,0,1,0,1.61-1.61A1.61,1.61,0,0,0,115.32,421.77Z" style="fill: rgb(99, 99, 99); transform-origin: 116.93px 421.77px;" id="elp2r8uboeh78" class="animable"></path><path d="M89.56,440.83a1.61,1.61,0,1,0,1.6-1.6A1.61,1.61,0,0,0,89.56,440.83Z" style="fill: rgb(99, 99, 99); transform-origin: 91.17px 440.84px;" id="elmqtxi7vyhgi" class="animable"></path><path d="M38.07,441.46a1.61,1.61,0,1,0,1.61-1.6A1.61,1.61,0,0,0,38.07,441.46Z" style="fill: rgb(99, 99, 99); transform-origin: 39.68px 441.47px;" id="el6ecvywloexh" class="animable"></path><path d="M145.23,426.13a1.61,1.61,0,1,0,1.61-1.61A1.6,1.6,0,0,0,145.23,426.13Z" style="fill: rgb(99, 99, 99); transform-origin: 146.84px 426.13px;" id="el2j6b73il524" class="animable"></path><path d="M134.3,429.91a1.61,1.61,0,1,0,1.61-1.61A1.61,1.61,0,0,0,134.3,429.91Z" style="fill: rgb(99, 99, 99); transform-origin: 135.91px 429.91px;" id="elcovlwsq8bpn" class="animable"></path><path d="M158.94,436.1a1.61,1.61,0,1,0,1.61-1.61A1.61,1.61,0,0,0,158.94,436.1Z" style="fill: rgb(99, 99, 99); transform-origin: 160.55px 436.1px;" id="elw6derecs1qs" class="animable"></path><path d="M191.89,450.64c-1.52-13.85,9.75-28.75,24-29.43,12.8-.62,26.86,8,37.52.89,8.72-5.81,8.91-18.19,9.89-28.62s3.85-20.94,10.66-28.8,18.25-12.32,28-8.73c19.66,7.24,20.88,39.5,41,45.44,13.9,4.11,28.4-7.45,42.67-4.89,17.48,3.13,25.37,22.46,38.78,31.92,1.39,1,7.22,5.19,13.9,10.07,5.61,4.1,11.8,8.65,16.46,12.15Z" style="fill: rgb(38, 50, 56); transform-origin: 323.261px 402.666px;" id="elbxtm2eghbr" class="animable"></path><g id="eltwg1jsgscja"><path d="M191.89,450.64c-1.52-13.85,9.75-28.75,24-29.43,12.8-.62,26.86,8,37.52.89,8.72-5.81,8.91-18.19,9.89-28.62s3.85-20.94,10.66-28.8,18.25-12.32,28-8.73c19.66,7.24,20.88,39.5,41,45.44,13.9,4.11,28.4-7.45,42.67-4.89,17.48,3.13,25.37,22.46,38.78,31.92,1.39,1,7.22,5.19,13.9,10.07,5.61,4.1,11.8,8.65,16.46,12.15Z" style="fill: rgb(255, 255, 255); opacity: 0.56; transform-origin: 323.261px 402.666px;" class="animable"></path></g><line x1="355.02" y1="449.5" x2="366.05" y2="417.27" style="fill: none; stroke: rgb(38, 50, 56); stroke-linecap: round; stroke-linejoin: round; transform-origin: 360.535px 433.385px;" id="el9pay53b7ba" class="animable"></line><line x1="316" y1="450.35" x2="293.1" y2="388.43" style="fill: none; stroke: rgb(38, 50, 56); stroke-linecap: round; stroke-linejoin: round; transform-origin: 304.55px 419.39px;" id="elqfo7bjevtmp" class="animable"></line><line x1="232.87" y1="450.35" x2="219.3" y2="437.63" style="fill: none; stroke: rgb(38, 50, 56); stroke-linecap: round; stroke-linejoin: round; transform-origin: 226.085px 443.99px;" id="el2hfn45kezzd" class="animable"></line><line x1="358.37" y1="439.15" x2="350.78" y2="422.36" style="fill: none; stroke: rgb(38, 50, 56); stroke-linecap: round; stroke-linejoin: round; transform-origin: 354.575px 430.755px;" id="el54bsqxozfkr" class="animable"></line><line x1="359.47" y1="437.1" x2="384.71" y2="430.84" style="fill: none; stroke: rgb(38, 50, 56); stroke-linecap: round; stroke-linejoin: round; transform-origin: 372.09px 433.97px;" id="el0kv3c3g6y6va" class="animable"></line><line x1="299.88" y1="407.09" x2="306.67" y2="396.06" style="fill: none; stroke: rgb(38, 50, 56); stroke-linecap: round; stroke-linejoin: round; transform-origin: 303.275px 401.575px;" id="el9rwzoowp2mr" class="animable"></line><line x1="306.67" y1="424.05" x2="282.07" y2="410.48" style="fill: none; stroke: rgb(38, 50, 56); stroke-linecap: round; stroke-linejoin: round; transform-origin: 294.37px 417.265px;" id="elq9bu0d07mq" class="animable"></line><line x1="314" y1="445.59" x2="291.4" y2="437.63" style="fill: none; stroke: rgb(38, 50, 56); stroke-linecap: round; stroke-linejoin: round; transform-origin: 302.7px 441.61px;" id="els7npgkobvqs" class="animable"></line><line x1="310.91" y1="436.78" x2="325.33" y2="411.33" style="fill: none; stroke: rgb(38, 50, 56); stroke-linecap: round; stroke-linejoin: round; transform-origin: 318.12px 424.055px;" id="el6ubf3mnuu5q" class="animable"></line><path d="M290.91,388.43a2.19,2.19,0,1,0,2.19-2.19A2.19,2.19,0,0,0,290.91,388.43Z" style="fill: rgb(38, 50, 56); transform-origin: 293.1px 388.43px;" id="ela92x18m7wk4" class="animable"></path><path d="M304.64,395.87a2.19,2.19,0,1,0,2.19-2.19A2.19,2.19,0,0,0,304.64,395.87Z" style="fill: rgb(38, 50, 56); transform-origin: 306.83px 395.87px;" id="elw50j5wda29g" class="animable"></path><path d="M279.88,410.48a2.19,2.19,0,1,0,2.19-2.19A2.19,2.19,0,0,0,279.88,410.48Z" style="fill: rgb(38, 50, 56); transform-origin: 282.07px 410.48px;" id="el6afp36uqmpd" class="animable"></path><path d="M323.14,411.33a2.19,2.19,0,1,0,2.19-2.19A2.19,2.19,0,0,0,323.14,411.33Z" style="fill: rgb(38, 50, 56); transform-origin: 325.33px 411.33px;" id="el6nk3y7oq6oc" class="animable"></path><path d="M288.06,437.29a2.19,2.19,0,1,0,2.19-2.19A2.19,2.19,0,0,0,288.06,437.29Z" style="fill: rgb(38, 50, 56); transform-origin: 290.25px 437.29px;" id="elfurmlhsz7yh" class="animable"></path><path d="M218,438.15a2.19,2.19,0,1,0,2.19-2.19A2.18,2.18,0,0,0,218,438.15Z" style="fill: rgb(38, 50, 56); transform-origin: 220.19px 438.15px;" id="elgg53l0s600i" class="animable"></path><path d="M363.86,417.27a2.19,2.19,0,1,0,2.19-2.19A2.19,2.19,0,0,0,363.86,417.27Z" style="fill: rgb(38, 50, 56); transform-origin: 366.05px 417.27px;" id="el1xgfc0u5s2xh" class="animable"></path><path d="M349,422.42a2.19,2.19,0,1,0,2.19-2.19A2.19,2.19,0,0,0,349,422.42Z" style="fill: rgb(38, 50, 56); transform-origin: 351.19px 422.42px;" id="el1itfthf2k9a" class="animable"></path><path d="M382.52,430.84a2.19,2.19,0,1,0,2.19-2.19A2.19,2.19,0,0,0,382.52,430.84Z" style="fill: rgb(38, 50, 56); transform-origin: 384.71px 430.84px;" id="elon4l9r76ay" class="animable"></path></g><g id="freepik--Floor--inject-31" class="animable" style="transform-origin: 248.53px 451.35px;"><line x1="6.74" y1="451.35" x2="490.32" y2="451.35" style="fill: none; stroke: rgb(38, 50, 56); stroke-linecap: round; stroke-linejoin: round; transform-origin: 248.53px 451.35px;" id="elrfzcfvzz3b" class="animable"></line></g><g id="freepik--Character--inject-31" class="animable" style="transform-origin: 218.383px 318.349px;"><rect x="147.74" y="277.02" width="6.86" height="184.98" style="fill: rgb(146, 227, 169); stroke: rgb(38, 50, 56); stroke-linecap: round; stroke-linejoin: round; transform-origin: 151.17px 369.51px;" id="el7uxmuf1imig" class="animable"></rect><rect x="146.16" y="460.76" width="10.17" height="8.61" rx="2.26" style="fill: rgb(38, 50, 56); stroke: rgb(38, 50, 56); stroke-linecap: round; stroke-linejoin: round; transform-origin: 151.245px 465.065px;" id="elog0s0sssc1a" class="animable"></rect><rect x="144.81" y="424.37" width="12.68" height="5.44" style="fill: rgb(38, 50, 56); stroke: rgb(38, 50, 56); stroke-linecap: round; stroke-linejoin: round; transform-origin: 151.15px 427.09px;" id="elywkj1h3yd1i" class="animable"></rect><rect x="107.67" y="425.88" width="86.97" height="2.42" style="fill: rgb(38, 50, 56); stroke: rgb(38, 50, 56); stroke-linecap: round; stroke-linejoin: round; transform-origin: 151.155px 427.09px;" id="ele8tpul4aucj" class="animable"></rect><rect x="148.01" y="261.78" width="6.49" height="11.88" style="fill: rgb(150, 150, 150); stroke: rgb(38, 50, 56); stroke-linecap: round; stroke-linejoin: round; transform-origin: 151.255px 267.72px;" id="el0jj79y9qhmjp" class="animable"></rect><rect x="147.74" y="277.02" width="6.86" height="67.92" style="fill: rgb(150, 150, 150); stroke: rgb(38, 50, 56); stroke-linecap: round; stroke-linejoin: round; transform-origin: 151.17px 310.98px;" id="el9ylg70llzb8" class="animable"></rect><rect x="147.74" y="277.02" width="6.86" height="16.62" style="fill: rgb(38, 50, 56); stroke: rgb(38, 50, 56); stroke-linecap: round; stroke-linejoin: round; transform-origin: 151.17px 285.33px;" id="elecrmefhwg2b" class="animable"></rect><rect x="143.77" y="273.41" width="15.9" height="10.48" style="fill: rgb(38, 50, 56); stroke: rgb(38, 50, 56); stroke-linecap: round; stroke-linejoin: round; transform-origin: 151.72px 278.65px;" id="el1ny89k1ja1n" class="animable"></rect><g id="elnuuijztu8dl"><rect x="87.67" y="460.53" width="9.78" height="8.41" rx="1.96" style="fill: rgb(38, 50, 56); stroke: rgb(38, 50, 56); stroke-linecap: round; stroke-linejoin: round; transform-origin: 92.56px 464.735px; transform: rotate(9.5deg);" class="animable"></rect></g><path d="M94.47,462.94l-3-.84a1.49,1.49,0,0,1-1-1.84l49.45-177.44,5.92,1.63L96.3,461.9A1.5,1.5,0,0,1,94.47,462.94Z" style="fill: rgb(146, 227, 169); stroke: rgb(38, 50, 56); stroke-linecap: round; stroke-linejoin: round; transform-origin: 118.126px 372.905px;" id="el3laxycl3k7c" class="animable"></path><polygon points="143.09 294 145.75 284.44 139.83 282.82 136.71 294 143.09 294" style="fill: rgb(38, 50, 56); stroke: rgb(38, 50, 56); stroke-linecap: round; stroke-linejoin: round; transform-origin: 141.23px 288.41px;" id="elc0t0to8n3kh" class="animable"></polygon><g id="elqq33wcsnjr"><rect x="204.84" y="460.53" width="9.78" height="8.41" rx="1.96" style="fill: rgb(38, 50, 56); stroke: rgb(38, 50, 56); stroke-linecap: round; stroke-linejoin: round; transform-origin: 209.73px 464.735px; transform: rotate(170.5deg);" class="animable"></rect></g><path d="M207.59,463l3.35-.92a1.34,1.34,0,0,0,.93-1.65L162.38,282.82l-5.92,1.63L206,462.05A1.34,1.34,0,0,0,207.59,463Z" style="fill: rgb(146, 227, 169); stroke: rgb(38, 50, 56); stroke-linecap: round; stroke-linejoin: round; transform-origin: 184.19px 372.927px;" id="ell4hcbd0ajw" class="animable"></path><polygon points="165.5 294 162.38 282.82 156.46 284.44 159.12 294 165.5 294" style="fill: rgb(38, 50, 56); stroke: rgb(38, 50, 56); stroke-linecap: round; stroke-linejoin: round; transform-origin: 160.98px 288.41px;" id="ele3unsu1h8qn" class="animable"></polygon><rect x="96.8" y="424.37" width="12.68" height="5.44" style="fill: rgb(38, 50, 56); stroke: rgb(38, 50, 56); stroke-linecap: round; stroke-linejoin: round; transform-origin: 103.14px 427.09px;" id="elvhwyifqohw" class="animable"></rect><rect x="192.23" y="424.37" width="12.68" height="5.44" style="fill: rgb(38, 50, 56); stroke: rgb(38, 50, 56); stroke-linecap: round; stroke-linejoin: round; transform-origin: 198.57px 427.09px;" id="elx3l6fwaa0cm" class="animable"></rect><g id="ele5mm00n5gvm"><rect x="161.57" y="255.12" width="3.8" height="29.47" style="fill: rgb(150, 150, 150); stroke: rgb(38, 50, 56); stroke-linecap: round; stroke-linejoin: round; transform-origin: 163.47px 269.855px; transform: rotate(-54.65deg);" class="animable"></rect></g><path d="M186.86,286.45h0a4,4,0,0,1-5.68.88l-20.29-15.21,3.87-5.45,21.06,14.12A4,4,0,0,1,186.86,286.45Z" style="fill: rgb(38, 50, 56); stroke: rgb(38, 50, 56); stroke-linecap: round; stroke-linejoin: round; transform-origin: 174.249px 277.405px;" id="el8st8fjjxtxn" class="animable"></path><path d="M157.49,262.43a6.49,6.49,0,1,0-6.49,6.49A6.49,6.49,0,0,0,157.49,262.43Z" style="fill: rgb(38, 50, 56); stroke: rgb(38, 50, 56); stroke-linecap: round; stroke-linejoin: round; transform-origin: 151px 262.43px;" id="elge4r1rp43fl" class="animable"></path><path d="M263.26,256.88s-15.56-8.08-18.41-11.68S232,233.53,227.2,229s-9.28-6-11.82-6.43-6.74-.9-7,.3,1.65,1.35,2.85,1.5a22,22,0,0,1,3.89,1.34s-2.25.6-4,1.05a13.65,13.65,0,0,0-5.24,2.84c-1.05,1.05-.6,1.65.3,1.8a9.29,9.29,0,0,0,2.69-.3l2.25-1.35h3.74a31.6,31.6,0,0,0-4.64,2c-.75.6-3.44,3-3.59,3.89s1.49,1.35,2.24.6,3.14-2.85,3.14-2.85-2.84,3.45-3,4.49a1,1,0,0,0,1.65,1,23.42,23.42,0,0,0,2.69-2.84c.6-.6,4-.45,4-.45s4.79,3.74,6.58,4.34,7,1.64,7,1.64,17.8,23.79,19.9,25.89,9,8.83,10.62,10,4.19,3,5.24,3.15,4.49-3.15,6.43-4,3.89-3.59,4.34-3.89-8.53-19.16-8.53-19.16Z" style="fill: rgb(255, 255, 255); stroke: rgb(38, 50, 56); stroke-linecap: round; stroke-linejoin: round; transform-origin: 241.374px 251.361px;" id="elmc4brrze499" class="animable"></path><path d="M227.05,230.24a37.27,37.27,0,0,1-5.84-2.84c-1.64-1.2-4.79-4.19-5.39-2.54s1.2,4.78,3.45,6.13,5.08,7.78,10.62,7.78" style="fill: rgb(255, 255, 255); stroke: rgb(38, 50, 56); stroke-linecap: round; stroke-linejoin: round; transform-origin: 222.797px 231.572px;" id="elpd4m7vucw8c" class="animable"></path><path d="M320.66,437.08s-3.6,6.17-5.14,7.37-7,3.43-7.38,5.49-.34,3.95,1.72,4.46,13.55,3.6,16.81,3.6a27.83,27.83,0,0,1,7.2.86c1,.34,8.06,2.4,11,2.06s8.4-1.72,5.83-8.41c-1.7-4.42-5-14.06-5-14.06s-16.29,2.23-19.38,1S320.66,437.08,320.66,437.08Z" style="fill: rgb(146, 227, 169); stroke: rgb(38, 50, 56); stroke-linecap: round; stroke-linejoin: round; transform-origin: 329.662px 449.019px;" id="elsd20vu772r8" class="animable"></path><path d="M351.15,454.09a13.7,13.7,0,0,1-6.13,3.57c-5.49,1.37-8.75-2.57-12.35-2.92s-5.32.52-12-.51c-4.67-.72-9.68-3.36-12.27-4.89a1.71,1.71,0,0,0-.25.6c-.34,2.06-.34,3.95,1.72,4.46s13.55,3.6,16.81,3.6a27.83,27.83,0,0,1,7.2.86c1,.34,8.06,2.4,11,2.06C347.52,460.6,352.32,459.42,351.15,454.09Z" style="fill: rgb(255, 255, 255); stroke: rgb(38, 50, 56); stroke-linecap: round; stroke-linejoin: round; transform-origin: 329.656px 455.149px;" id="el0v6saael7jsk" class="animable"></path><path d="M298.58,378.18s14.45,31.07,15.54,36.13,5.06,14.82,7.58,17-1.44,2.17-1.08,4a16.36,16.36,0,0,1,.36,2.89s6.87,4.7,13.37,4.7a42,42,0,0,0,11.92-1.81,3.62,3.62,0,0,0,.73-4c-1.09-2.16-3.62-4-3.26-6.14s1.45-3.25.37-8.31-2.9-8.31-3.62-11.2-12.28-32.15-14.09-36.49-3.25-7.59-3.25-7.59l.36-37.93-27.46,38.66A42,42,0,0,0,298.58,378.18Z" style="fill: rgb(38, 50, 56); stroke: rgb(38, 50, 56); stroke-linecap: round; stroke-linejoin: round; transform-origin: 321.679px 386.165px;" id="elgui434lw01n" class="animable"></path><path d="M324.44,432.44a22,22,0,0,0,11.83,4.46" style="fill: none; stroke: rgb(255, 255, 255); stroke-linecap: round; stroke-linejoin: round; transform-origin: 330.355px 434.67px;" id="elrcxtgcg3os8" class="animable"></path><path d="M325.64,435.88s5.83,4.28,11.66,4.28" style="fill: none; stroke: rgb(255, 255, 255); stroke-linecap: round; stroke-linejoin: round; transform-origin: 331.47px 438.02px;" id="elrhs8osrdnmd" class="animable"></path><path d="M275.21,449.6s-7,5.31-8.92,6.52-8.58,4.28-9.26,5.31-1,2.92.34,3.78,16.81,3.26,25.73,3.26,17.84-.18,19.21-1.38,0-12,0-12Z" style="fill: rgb(146, 227, 169); stroke: rgb(38, 50, 56); stroke-linecap: round; stroke-linejoin: round; transform-origin: 279.681px 459.035px;" id="el5a1gm6optj5" class="animable"></path><path d="M302.31,467.09c.42-.36.58-1.64.6-3.22-7.45,1.08-17.3,2.07-25.13,1.34a106.69,106.69,0,0,1-20.71-3.82l0,0c-.69,1-1,2.92.34,3.78s16.81,3.26,25.73,3.26S300.94,468.29,302.31,467.09Z" style="fill: rgb(255, 255, 255); stroke: rgb(38, 50, 56); stroke-linecap: round; stroke-linejoin: round; transform-origin: 279.694px 464.91px;" id="elwuk9eblasri" class="animable"></path><path d="M283.41,294.36s-1.09,14.82.36,19.87a50.18,50.18,0,0,1,1.44,11.56s-13.36,42.28-13.36,48.06,5,67.56,5,67.56-3.25,1.81-2.89,3.61a25.57,25.57,0,0,1,0,5.42s13.73,4.7,18.79,5.06,9.39.36,9.39.36,1.45-6.5.73-10.48S300,434.18,300,430.21s-1.09-31.43,0-36.85-1.45-21.68-1.45-21.68,32.52-49.5,34.32-52.75,4.34-12.28,3.26-18.43a46.52,46.52,0,0,0-2.89-10.11s-5.42,8.31-12.29,9S283.41,294.36,283.41,294.36Z" style="fill: rgb(38, 50, 56); stroke: rgb(38, 50, 56); stroke-linecap: round; stroke-linejoin: round; transform-origin: 304.119px 373.125px;" id="elgl3sr1qodfh" class="animable"></path><path d="M287.74,318.57s2.53-9.76,6.51-12.65" style="fill: none; stroke: rgb(255, 255, 255); stroke-linecap: round; stroke-linejoin: round; transform-origin: 290.995px 312.245px;" id="elxrwbzwooxeq" class="animable"></path><path d="M292.44,313.15a10,10,0,0,1,6.86-5.42" style="fill: none; stroke: rgb(255, 255, 255); stroke-linecap: round; stroke-linejoin: round; transform-origin: 295.87px 310.44px;" id="elt2l4hfyhg" class="animable"></path><path d="M278.12,441.71s7.21,6.52,15.27,8.57" style="fill: none; stroke: rgb(255, 255, 255); stroke-linecap: round; stroke-linejoin: round; transform-origin: 285.755px 445.995px;" id="elgs0q8pqv63k" class="animable"></path><path d="M283.78,449.43s7.89,2.91,12.87,2.91" style="fill: none; stroke: rgb(255, 255, 255); stroke-linecap: round; stroke-linejoin: round; transform-origin: 290.215px 450.885px;" id="elt7otbvpgk9b" class="animable"></path><path d="M253.51,218.22s-3.52,9.21-3,14.09,6.77,16.53,9.48,20.86,15.45,30.35,18.16,37.4,6.23,9.75,13.55,11.38,24.38,5.42,33.06,3.25,10.29-11.38,11.38-14.63,1.62-8.4-.27-11.65a54.3,54.3,0,0,1-4.61-9.76c-1.63-4.33-12.74-39.29-20.59-48.77s-24.12-18.16-31.44-21.95-11.11-4.88-13.55-3.25S253.51,218.22,253.51,218.22Z" style="fill: rgb(255, 255, 255); stroke: rgb(38, 50, 56); stroke-linecap: round; stroke-linejoin: round; transform-origin: 293.791px 250.155px;" id="el36vmno5ecmg" class="animable"></path><path d="M253.51,218.22s-3.52,9.21-3,14.09,6.77,16.53,9.48,20.86,15.45,30.35,18.16,37.4,6.23,9.75,13.55,11.38,24.38,5.42,33.06,3.25,10.29-11.38,11.38-14.63,1.62-8.4-.27-11.65a54.3,54.3,0,0,1-4.61-9.76c-1.63-4.33-12.74-39.29-20.59-48.77s-24.12-18.16-31.44-21.95-11.11-4.88-13.55-3.25S253.51,218.22,253.51,218.22Z" style="fill: rgb(146, 227, 169); stroke: rgb(38, 50, 56); stroke-linecap: round; stroke-linejoin: round; transform-origin: 293.791px 250.155px;" id="el426n1belgqu" class="animable"></path><path d="M296.24,268.17a57.87,57.87,0,0,0,17.15,10.75" style="fill: none; stroke: rgb(38, 50, 56); stroke-linecap: round; stroke-linejoin: round; transform-origin: 304.815px 273.545px;" id="el7oyhhgd6t6d" class="animable"></path><path d="M282.77,251.28a61.24,61.24,0,0,0,10.62,14.18" style="fill: none; stroke: rgb(38, 50, 56); stroke-linecap: round; stroke-linejoin: round; transform-origin: 288.08px 258.37px;" id="eltcqhnn8jrtq" class="animable"></path><path d="M315.66,285.7c1.23.21,2.55.39,4,.53" style="fill: none; stroke: rgb(38, 50, 56); stroke-linecap: round; stroke-linejoin: round; transform-origin: 317.66px 285.965px;" id="elwwn9n26qj3" class="animable"></path><path d="M299.3,277.83s2.78,4.63,12.92,7.15" style="fill: none; stroke: rgb(38, 50, 56); stroke-linecap: round; stroke-linejoin: round; transform-origin: 305.76px 281.405px;" id="elsnh7q93ibf" class="animable"></path><path d="M210.91,193.6s2.35,13.48,5.94,15.07,3.67,2.05,3.78,2.75.31,8.07,2,8.28a41.11,41.11,0,0,0,5.93-.22s8,6.63,10.78,4.76,7.25-8.54,7.25-8.54l9.69,5.4s5.12,11.37,5.53,9.4,6.91-33.56,6.91-33.56-13-8-14.65-9.64-7.72-15.74-12.93-18.5-12.74-2.06-16.91.26-10.2,12.59-10.2,12.59-.5-4.7-2.7-2a14,14,0,0,0-2.55,6.61s-1.87-2.81-3,.48,3.08,6,3.08,6-2.6.17-2.15,1.53S210.91,193.6,210.91,193.6Z" style="fill: rgb(255, 255, 255); stroke: rgb(38, 50, 56); stroke-linecap: round; stroke-linejoin: round; transform-origin: 237.154px 198.869px;" id="el9uw5mzhp73" class="animable"></path><path d="M219.31,207s0-3.09,2.9-3.45" style="fill: none; stroke: rgb(38, 50, 56); stroke-linecap: round; stroke-linejoin: round; transform-origin: 220.76px 205.275px;" id="elo3a6ynug0tn" class="animable"></path><path d="M224.72,208.17c.63.85.71,1.87.17,2.27s-1.49,0-2.13-.81-.72-1.87-.18-2.27S224.08,207.31,224.72,208.17Z" style="fill: rgb(38, 50, 56); transform-origin: 223.735px 208.896px;" id="elg81q8r1g1q" class="animable"></path><path d="M218.78,185.92c3.22-.74,4.1.31,4.27,2.91s-.59,5.35,1.19,6,8.6-3,8.6-3,2.21,3.47,3.15,3.33,1.33-2.12,1.33-2.12-1.27-5.06,1-5.89,6.06,3.59,6.76,6.58,3.28,2.59,7,.34c1.86-1.13,2.52-3.82,2.7-6.22-.28-.22-.51-.41-.66-.55-1.69-1.64-7.72-15.74-12.93-18.5s-12.74-2.06-16.91.26-10.2,12.59-10.2,12.59-.5-4.7-2.7-2a14,14,0,0,0-2.55,6.61s-1.87-2.81-3,.48,3.08,6,3.08,6-2.6.17-2.15,1.53,4.2-.66,4.2-.66S215.55,186.67,218.78,185.92Z" style="fill: rgb(38, 50, 56); stroke: rgb(38, 50, 56); stroke-linecap: round; stroke-linejoin: round; transform-origin: 230.209px 181.437px;" id="el836u0lkg9ad" class="animable"></path><path d="M237.37,196.37s-2.31-10.14,2.43-10.41,6,6.46,6.46,9.26-3.5,5.08-3.5,5.08" style="fill: rgb(255, 255, 255); stroke: rgb(38, 50, 56); stroke-linecap: round; stroke-linejoin: round; transform-origin: 241.552px 193.126px;" id="elg12a5mdlss7" class="animable"></path><path d="M230.78,216.75a8.86,8.86,0,0,0,2.36-7.77" style="fill: none; stroke: rgb(38, 50, 56); stroke-linecap: round; stroke-linejoin: round; transform-origin: 232.033px 212.865px;" id="elmo0lkrqjqbh" class="animable"></path><path d="M239.36,224.24a25.36,25.36,0,0,0,3.93-5.39,88.09,88.09,0,0,0,3.65-8.7l3.53,7.33-3.86-1.78S242.63,222.29,239.36,224.24Z" style="fill: rgb(38, 50, 56); stroke: rgb(38, 50, 56); stroke-linecap: round; stroke-linejoin: round; transform-origin: 244.915px 217.195px;" id="elc9lum5vv6hn" class="animable"></path><path d="M273.36,220.18s-4.14,5.78-4.88,9.92-7.57,20.2-7.57,20.2l23.62,6.2,14.84-17.82" style="fill: rgb(146, 227, 169); stroke: rgb(38, 50, 56); stroke-linecap: round; stroke-linejoin: round; transform-origin: 280.14px 238.34px;" id="eltgblj7vyhd" class="animable"></path><path d="M260.91,250.3l-9.46,20.36-45.39,6.76s-9.25-3.32-11.28-4.78-9.63-4.64-10-5.43-2.17,3.45,1.23,5.07a22.47,22.47,0,0,1,5.47,3.62s-7.86,3.64-8.67,3.71-8,5-7.94,5.83,2.76.58,2.76.58,3.47,2.43,4.82,2.32l3.24-.27s.7,1.85,3.4,1.63l6.48-.54c1.62-.14,9.25-3.22,9.25-3.22s32.2,1.41,40.12,1.85,19.17-1.59,20.21-2.22,19.34-29.07,19.34-29.07Z" style="fill: rgb(255, 255, 255); stroke: rgb(38, 50, 56); stroke-linecap: round; stroke-linejoin: round; transform-origin: 229.68px 270.009px;" id="eldz2lj7veese" class="animable"></path><polyline points="177.68 286.02 182.02 282.67 188.64 280.49" style="fill: none; stroke: rgb(38, 50, 56); stroke-linecap: round; stroke-linejoin: round; transform-origin: 183.16px 283.255px;" id="elgb3vxz7szhd" class="animable"></polyline><polyline points="180.22 287.17 185.73 284.81 192.42 283.44" style="fill: none; stroke: rgb(38, 50, 56); stroke-linecap: round; stroke-linejoin: round; transform-origin: 186.32px 285.305px;" id="elkx3kqa7vfuq" class="animable"></polyline><line x1="185.73" y1="288.07" x2="193.16" y2="285.83" style="fill: none; stroke: rgb(38, 50, 56); stroke-linecap: round; stroke-linejoin: round; transform-origin: 189.445px 286.95px;" id="elelhaerkhoev" class="animable"></line><rect x="148.01" y="240.97" width="6.49" height="20.52" style="fill: rgb(38, 50, 56); stroke: rgb(38, 50, 56); stroke-linecap: round; stroke-linejoin: round; transform-origin: 151.255px 251.23px;" id="elnhxwlpbxru" class="animable"></rect><g id="elvrfhlyx9olf"><rect x="154.95" y="169.13" width="7.41" height="97.55" style="fill: rgb(38, 50, 56); stroke: rgb(38, 50, 56); stroke-linecap: round; stroke-linejoin: round; transform-origin: 158.655px 217.905px; transform: rotate(-73.1913deg);" class="animable"></rect></g><g id="el6oilg9y8as5"><rect x="144.45" y="166.9" width="13.91" height="97.55" style="fill: rgb(150, 150, 150); stroke: rgb(38, 50, 56); stroke-linecap: round; stroke-linejoin: round; transform-origin: 151.405px 215.675px; transform: rotate(-72.91deg);" class="animable"></rect></g><polygon points="161.38 236.91 155.81 235.54 164.92 203.63 170.5 205 161.38 236.91" style="fill: rgb(38, 50, 56); stroke: rgb(38, 50, 56); stroke-linecap: round; stroke-linejoin: round; transform-origin: 163.155px 220.27px;" id="eldaq5vqld37" class="animable"></polygon><polygon points="190.15 216.28 183.8 236.95 90.2 209.43 97.26 186.47 190.15 216.28" style="fill: rgb(146, 227, 169); stroke: rgb(38, 50, 56); stroke-linecap: round; stroke-linejoin: round; transform-origin: 140.175px 211.71px;" id="elvbknqs7j8h" class="animable"></polygon><g id="elts0c1vdpcg9"><rect x="99.09" y="182.52" width="31.07" height="43.72" style="fill: rgb(146, 227, 169); stroke: rgb(38, 50, 56); stroke-linecap: round; stroke-linejoin: round; transform-origin: 114.625px 204.38px; transform: rotate(-72.91deg);" class="animable"></rect></g><g id="eltg4rligc339"><rect x="113.08" y="205.78" width="31.07" height="5.78" style="fill: rgb(38, 50, 56); stroke: rgb(38, 50, 56); stroke-linecap: round; stroke-linejoin: round; transform-origin: 128.615px 208.67px; transform: rotate(-72.91deg);" class="animable"></rect></g><g id="elgctxsz1jjod"><rect x="75.28" y="194.68" width="37.94" height="6.86" style="fill: rgb(38, 50, 56); stroke: rgb(38, 50, 56); stroke-linecap: round; stroke-linejoin: round; transform-origin: 94.25px 198.11px; transform: rotate(-72.91deg);" class="animable"></rect></g><path d="M206.37,228.7l-2.66,8.1a1.19,1.19,0,0,0,1.56,1.48L217,233.59a1.18,1.18,0,0,0-.15-2.25Z" style="fill: rgb(38, 50, 56); stroke: rgb(38, 50, 56); stroke-linecap: round; stroke-linejoin: round; transform-origin: 210.704px 233.53px;" id="eln695gd4hws" class="animable"></path><g id="elaum13axlugj"><rect x="215.31" y="213.03" width="5.74" height="18.22" style="fill: rgb(38, 50, 56); stroke: rgb(38, 50, 56); stroke-linecap: round; stroke-linejoin: round; transform-origin: 218.18px 222.14px; transform: rotate(13.89deg);" class="animable"></rect></g><g id="elqba7c3d949"><rect x="149.5" y="235.23" width="17.22" height="9.48" style="fill: rgb(38, 50, 56); stroke: rgb(38, 50, 56); stroke-linecap: round; stroke-linejoin: round; transform-origin: 158.11px 239.97px; transform: rotate(15.94deg);" class="animable"></rect></g><path d="M147,251.09a6.49,6.49,0,1,0-6.49,6.49A6.5,6.5,0,0,0,147,251.09Z" style="fill: rgb(38, 50, 56); stroke: rgb(38, 50, 56); stroke-linecap: round; stroke-linejoin: round; transform-origin: 140.51px 251.09px;" id="eliynw5nnsq28" class="animable"></path><g id="elu4mblr648pt"><rect x="143.76" y="234.23" width="3.99" height="19.96" style="fill: rgb(38, 50, 56); stroke: rgb(38, 50, 56); stroke-linecap: round; stroke-linejoin: round; transform-origin: 145.755px 244.21px; transform: rotate(15.14deg);" class="animable"></rect></g><path d="M157.49,262.43a6.49,6.49,0,1,0-6.49,6.49A6.49,6.49,0,0,0,157.49,262.43Z" style="fill: rgb(38, 50, 56); stroke: rgb(38, 50, 56); stroke-linecap: round; stroke-linejoin: round; transform-origin: 151px 262.43px;" id="el68yq4u93npq" class="animable"></path></g><defs>     <filter id="active" height="200%">         <feMorphology in="SourceAlpha" result="DILATED" operator="dilate" radius="2"></feMorphology>                <feFlood flood-color="#32DFEC" flood-opacity="1" result="PINK"></feFlood>        <feComposite in="PINK" in2="DILATED" operator="in" result="OUTLINE"></feComposite>        <feMerge>            <feMergeNode in="OUTLINE"></feMergeNode>            <feMergeNode in="SourceGraphic"></feMergeNode>        </feMerge>    </filter>    <filter id="hover" height="200%">        <feMorphology in="SourceAlpha" result="DILATED" operator="dilate" radius="2"></feMorphology>                <feFlood flood-color="#ff0000" flood-opacity="0.5" result="PINK"></feFlood>        <feComposite in="PINK" in2="DILATED" operator="in" result="OUTLINE"></feComposite>        <feMerge>            <feMergeNode in="OUTLINE"></feMergeNode>            <feMergeNode in="SourceGraphic"></feMergeNode>        </feMerge>            <feColorMatrix type="matrix" values="0   0   0   0   0                0   1   0   0   0                0   0   0   0   0                0   0   0   1   0 "></feColorMatrix>    </filter></defs></svg>